<svg width="42" height="43" viewBox="0 0 42 43" fill="none" xmlns="http://www.w3.org/2000/svg">
<mask id="mask0_3995_29588" style="mask-type:alpha" maskUnits="userSpaceOnUse" x="0" y="0" width="42" height="43">
<rect y="0.841797" width="42" height="42" fill="#D9D9D9"/>
</mask>
<g mask="url(#mask0_3995_29588)">
</g>
<g clip-path="url(#clip0_3995_29588)">
<path d="M0.19754 6.1187C0.134948 6.06175 0.085124 5.9931 0.0511307 5.91695C0.0171374 5.8408 -0.000307136 5.75876 -0.000130772 5.67589C-0.00125485 5.59224 0.0157403 5.50928 0.0497726 5.43229C0.0838049 5.35531 0.134129 5.28598 0.19754 5.22873C0.257379 5.16933 0.329081 5.12217 0.408341 5.09009C0.4876 5.05801 0.572782 5.04167 0.658771 5.04206C0.745418 5.04084 0.831399 5.05679 0.911367 5.08891C0.991335 5.12102 1.06358 5.16862 1.12361 5.22873C1.18594 5.28656 1.23525 5.35609 1.26848 5.43301C1.30171 5.50993 1.31815 5.5926 1.31677 5.67589C1.31721 5.7584 1.30034 5.84016 1.26714 5.91625C1.23395 5.99234 1.18513 6.0612 1.12361 6.1187C1.06389 6.17945 0.991788 6.22769 0.911805 6.26041C0.831822 6.29312 0.745681 6.30962 0.658771 6.30885C0.572467 6.30914 0.487016 6.29242 0.40769 6.25971C0.328363 6.22701 0.256843 6.17902 0.19754 6.1187V6.1187ZM0.0774932 6.6822H1.24005V10.7066H0.0774932V6.6822Z" fill="#4D4D4F"/>
<path d="M1.70504 8.51536C1.69912 8.16255 1.7927 7.81479 1.97582 7.50904C2.15134 7.21787 2.40554 6.97784 2.71144 6.81443C3.04025 6.64179 3.4101 6.55442 3.78464 6.5609C4.15502 6.55428 4.52081 6.64046 4.8461 6.81096C5.15147 6.97302 5.40588 7.21115 5.58263 7.50036C5.76706 7.80812 5.86068 8.15846 5.85341 8.51362V10.7069H4.68815V8.51536C4.69155 8.40063 4.67021 8.28647 4.62547 8.18007C4.58073 8.07367 4.51356 7.97734 4.4282 7.89716C4.34316 7.81629 4.24198 7.75282 4.13075 7.71059C4.01952 7.66836 3.90056 7.64824 3.78103 7.65144C3.66034 7.64764 3.54011 7.66747 3.42762 7.7097C3.31514 7.75194 3.21274 7.81571 3.12664 7.89716C3.04128 7.97734 2.97411 8.07367 2.92937 8.18007C2.88463 8.28647 2.86329 8.40063 2.86669 8.51536V10.7069H1.70504V8.51536Z" fill="#4D4D4F"/>
<path d="M7.15587 10.543C6.8387 10.355 6.57824 10.0904 6.40039 9.77545C6.21227 9.44421 6.11621 9.07188 6.12148 8.69446C6.1193 8.41144 6.17321 8.13061 6.28034 7.86701C6.38213 7.6146 6.53317 7.38325 6.72533 7.18542C6.9134 6.99145 7.13988 6.83559 7.39145 6.72698C7.65024 6.61652 7.9306 6.56057 8.21372 6.56288C8.44395 6.561 8.67256 6.60016 8.88797 6.67836C9.08837 6.75238 9.2722 6.8626 9.42953 7.00309V5.41504H10.5921V10.7114H9.42953V10.3789C9.27418 10.5235 9.08995 10.6364 8.88797 10.7106C8.67273 10.7895 8.44405 10.8289 8.21372 10.8269C7.84023 10.8308 7.47331 10.7323 7.15587 10.543V10.543ZM9.12355 9.44377C9.22493 9.34552 9.30437 9.22837 9.35699 9.09952C9.40961 8.97067 9.43429 8.83283 9.42953 8.69446C9.4315 8.51044 9.38359 8.32909 9.29053 8.1683C9.20065 8.01263 9.06955 7.88262 8.91053 7.79147C8.74369 7.69849 8.55364 7.65105 8.36085 7.65429C8.16667 7.6514 7.97525 7.69878 7.80665 7.79147C7.64579 7.8815 7.51324 8.0117 7.42304 8.1683C7.3292 8.32978 7.28097 8.51208 7.28314 8.69707C7.27813 8.83475 7.30255 8.97195 7.35486 9.10019C7.40718 9.22844 7.4863 9.34499 7.58731 9.44265C7.68832 9.54031 7.80909 9.61699 7.94214 9.66796C8.07519 9.71893 8.2177 9.7431 8.36085 9.73898C8.50219 9.74249 8.64279 9.7181 8.77396 9.66733C8.90514 9.61655 9.02411 9.54047 9.12355 9.44377V9.44377Z" fill="#4D4D4F"/>
<path d="M12.2456 10.6581C11.8453 10.4946 11.5041 10.221 11.265 9.87153C11.0259 9.52209 10.8995 9.11244 10.9017 8.69409C10.8968 8.31915 10.9972 7.94989 11.1923 7.62526C11.3837 7.30657 11.6573 7.04072 11.9866 6.85337C12.3391 6.66267 12.7366 6.5625 13.141 6.5625C13.5454 6.5625 13.943 6.66267 14.2955 6.85337C14.6248 7.04072 14.8983 7.30657 15.0897 7.62526C15.2848 7.94989 15.3852 8.31915 15.3804 8.69409C15.3833 9.11259 15.2572 9.52253 15.0179 9.87211C14.7787 10.2217 14.4372 10.4952 14.0364 10.6581C13.4623 10.8827 12.8197 10.8827 12.2456 10.6581ZM13.6952 9.59621C13.8561 9.50414 13.989 9.37299 14.0806 9.21592C14.172 9.05524 14.2198 8.87505 14.2198 8.69192C14.2198 8.50879 14.172 8.3286 14.0806 8.16792C13.9889 8.01268 13.8567 7.88311 13.697 7.79197C13.5282 7.69923 13.3372 7.65045 13.1428 7.65045C12.9484 7.65045 12.7574 7.69923 12.5886 7.79197C12.4283 7.88287 12.2955 8.01246 12.2032 8.16792C12.1095 8.32816 12.0616 8.50939 12.0642 8.69322C12.0627 8.8761 12.1123 9.05601 12.2077 9.21418C12.3007 9.37084 12.434 9.50182 12.5949 9.59448C12.7598 9.68953 12.9489 9.73854 13.141 9.736C13.3357 9.73979 13.5276 9.69139 13.6952 9.59621V9.59621Z" fill="#4D4D4F"/>
<path d="M16.4382 10.6657C16.175 10.5718 15.9423 10.4124 15.764 10.2038C15.5945 9.9972 15.5054 9.74014 15.5121 9.47706H16.6512C16.6557 9.54489 16.6779 9.61053 16.7158 9.6679C16.7536 9.72527 16.8059 9.77252 16.8678 9.80527C17.0071 9.88616 17.1673 9.9274 17.33 9.92422C17.5358 9.92422 17.6829 9.88949 17.7714 9.82003C17.8122 9.79041 17.8453 9.75212 17.8682 9.70813C17.891 9.66415 17.903 9.61567 17.9031 9.5665C17.9056 9.52248 17.897 9.47854 17.8781 9.43836C17.8593 9.39818 17.8307 9.36292 17.7948 9.33554C17.7232 9.28145 17.6372 9.24776 17.5466 9.23829L16.8182 9.15147C16.4842 9.12358 16.1693 8.98982 15.9228 8.77117C15.8103 8.66473 15.7222 8.53681 15.6643 8.39564C15.6063 8.25447 15.5797 8.10319 15.5861 7.95153C15.5763 7.69048 15.6493 7.43274 15.7955 7.21264C15.944 7.0036 16.1491 6.83757 16.3886 6.73249C16.657 6.61364 16.9497 6.55429 17.2451 6.55884C17.5472 6.55472 17.8471 6.60783 18.1279 6.71512C18.3747 6.80827 18.5923 6.96109 18.7597 7.15881C18.9192 7.35573 19.005 7.59859 19.0034 7.8482H17.8571C17.8495 7.78942 17.828 7.73307 17.7944 7.68343C17.7608 7.63379 17.7159 7.59216 17.663 7.56168C17.5565 7.49186 17.4309 7.45409 17.302 7.45315C17.1653 7.44668 17.0303 7.48426 16.9184 7.55994C16.8729 7.59103 16.836 7.63238 16.811 7.68037C16.786 7.72835 16.7736 7.78151 16.7749 7.83518C16.7719 7.8861 16.7838 7.93679 16.8092 7.98157C16.8345 8.02635 16.8723 8.06346 16.9184 8.08871C17.0217 8.14588 17.1365 8.18139 17.2551 8.1929L17.7064 8.245C18.1351 8.29536 18.4718 8.42386 18.7173 8.63311C18.8358 8.73022 18.9304 8.85152 18.9941 8.9882C19.0578 9.12487 19.089 9.27349 19.0855 9.42323C19.0918 9.68407 19.0177 9.94087 18.8725 10.1613C18.7241 10.3749 18.5161 10.544 18.2723 10.6492C17.9883 10.77 17.6802 10.8293 17.3697 10.8229C17.0516 10.8281 16.7354 10.7747 16.4382 10.6657V10.6657Z" fill="#4D4D4F"/>
<path d="M22.6094 6.85379C22.9387 7.04114 23.2122 7.30699 23.4036 7.62568C23.5987 7.95031 23.6991 8.31956 23.6943 8.69451V10.7071H22.5317V10.4015C22.3889 10.5364 22.2186 10.6417 22.0317 10.7106C21.8261 10.7893 21.6066 10.8288 21.3854 10.827C21.0919 10.8291 20.8013 10.7717 20.5325 10.6585C20.2732 10.5498 20.0388 10.3928 19.8429 10.1966C19.6463 9.99921 19.4902 9.76799 19.3825 9.51501C19.1563 8.99589 19.1527 8.41175 19.3725 7.89007C19.5923 7.3684 20.0178 6.95155 20.5559 6.7305C20.8395 6.61675 21.1441 6.55974 21.4513 6.56292C21.8578 6.5551 22.2587 6.65578 22.6094 6.85379V6.85379ZM22.0091 9.59663C22.1694 9.50432 22.3016 9.37319 22.3927 9.21633C22.4839 9.05576 22.5317 8.87573 22.5317 8.69277C22.5317 8.50981 22.4839 8.32978 22.3927 8.16921C22.301 8.01397 22.1688 7.88439 22.0091 7.79325C21.8403 7.70051 21.6493 7.65173 21.4549 7.65173C21.2605 7.65173 21.0695 7.70051 20.9007 7.79325C20.7412 7.88415 20.609 8.01342 20.5171 8.16834C20.4259 8.32891 20.3782 8.50894 20.3782 8.6919C20.3782 8.87486 20.4259 9.05489 20.5171 9.21546C20.6082 9.37232 20.7405 9.50345 20.9007 9.59576C21.0695 9.6885 21.2605 9.73728 21.4549 9.73728C21.6493 9.73728 21.8403 9.6885 22.0091 9.59576V9.59663Z" fill="#4D4D4F"/>
<path d="M24.8875 10.5996C24.6137 10.4528 24.3861 10.2377 24.2286 9.97703C24.0664 9.70515 23.9834 9.39618 23.9885 9.08272V5.71387H25.1511V6.68285H26.2279V7.77773H25.1511V9.08012C25.1502 9.16643 25.1673 9.25204 25.2012 9.33194C25.2352 9.41184 25.2853 9.48443 25.3488 9.54546C25.4122 9.6065 25.4877 9.65475 25.5707 9.68741C25.6538 9.72007 25.7428 9.73647 25.8325 9.73566H26.2279V10.8271H25.8325C25.5023 10.8317 25.1765 10.7533 24.8875 10.5996Z" fill="#4D4D4F"/>
<path d="M39.3689 18.4282C39.0189 18.4276 38.6724 18.4946 38.3498 18.6251C38.0271 18.7556 37.735 18.947 37.4906 19.188H37.4798C37.2422 19.4816 36.9162 19.6975 36.5464 19.8063C36.1765 19.9151 35.7808 19.9114 35.4131 19.7959C35.0455 19.6803 34.7239 19.4584 34.4922 19.1605C34.2605 18.8626 34.13 18.5032 34.1185 18.1313V18.1313V12.1811C34.1185 12.1611 34.1185 12.1412 34.1185 12.1212C34.1185 11.7866 34.2566 11.4657 34.5026 11.2291C34.7485 10.9925 35.0821 10.8596 35.43 10.8596C35.7778 10.8596 36.1114 10.9925 36.3573 11.2291C36.6033 11.4657 36.7414 11.7866 36.7414 12.1212V13.3524C36.7414 14.0216 37.0178 14.6633 37.5097 15.1365C38.0016 15.6097 38.6688 15.8755 39.3644 15.8755V15.8755C40.0601 15.8755 40.7272 15.6097 41.2191 15.1365C41.711 14.6633 41.9874 14.0216 41.9874 13.3524V12.1212C41.9976 11.2866 41.8355 10.4585 41.5105 9.68462C41.1856 8.91077 40.7042 8.20665 40.0943 7.61305C39.4844 7.01945 38.7582 6.54817 37.9576 6.22653C37.157 5.90488 36.298 5.73926 35.4304 5.73926C34.5628 5.73926 33.7038 5.90488 32.9032 6.22653C32.1026 6.54817 31.3764 7.01945 30.7665 7.61305C30.1566 8.20665 29.6752 8.91077 29.3503 9.68462C29.0253 10.4585 28.8633 11.2866 28.8734 12.1212V12.1212C28.8734 12.1412 28.8734 12.1611 28.8734 12.1811V36.1191C28.8731 36.4503 28.9405 36.7784 29.072 37.0845C29.2034 37.3907 29.3963 37.6689 29.6395 37.9034C29.8827 38.1378 30.1716 38.3239 30.4896 38.451C30.8076 38.5781 31.1485 38.6436 31.4928 38.644V38.644C31.8376 38.6443 32.1791 38.5793 32.4978 38.4525C32.8165 38.3257 33.106 38.1398 33.3499 37.9053C33.5938 37.6708 33.7872 37.3923 33.9191 37.0858C34.051 36.7793 34.1187 36.4508 34.1185 36.1191V23.828C34.118 23.4711 34.2273 23.1221 34.4327 22.8249C34.6381 22.5277 34.9304 22.2956 35.2726 22.1579C35.6149 22.0202 35.9919 21.9831 36.356 22.0511C36.7202 22.1192 37.0553 22.2894 37.3191 22.5403C37.5972 22.8742 37.9588 23.1348 38.3701 23.2978C38.7813 23.4607 39.2288 23.5207 39.6707 23.4721C40.1126 23.4234 40.5345 23.2678 40.8968 23.0197C41.2592 22.7716 41.5503 22.4392 41.7428 22.0535C41.9353 21.6678 42.023 21.2414 41.9977 20.8143C41.9723 20.3871 41.8348 19.9731 41.598 19.611C41.3611 19.2488 41.0326 18.9504 40.6433 18.7435C40.2539 18.5367 39.8164 18.4282 39.3716 18.4282H39.3689Z" fill="#FFB71B"/>
<path d="M26.2135 18.4577C26.2135 17.0642 25.0391 15.9346 23.5905 15.9346C22.1419 15.9346 20.9675 17.0642 20.9675 18.4577V36.1182C20.9675 37.5117 22.1419 38.6414 23.5905 38.6414C25.0391 38.6414 26.2135 37.5117 26.2135 36.1182V18.4577Z" fill="#D9117C"/>
<path d="M15.7216 20.9805C15.0261 20.9807 14.3591 21.2466 13.8674 21.7198C13.3757 22.193 13.0995 22.8346 13.0995 23.5036V28.5491L13.0733 29.8385C13.0779 30.0053 13.0477 30.1712 12.9845 30.3266C12.9213 30.482 12.8264 30.6236 12.7054 30.7432C12.5844 30.8627 12.4397 30.9577 12.2799 31.0226C12.1201 31.0874 11.9484 31.1208 11.7749 31.1208C11.6015 31.1208 11.4298 31.0874 11.27 31.0226C11.1102 30.9577 10.9655 30.8627 10.8445 30.7432C10.7235 30.6236 10.6286 30.482 10.5654 30.3266C10.5022 30.1712 10.472 30.0053 10.4765 29.8385V28.5491C10.4765 28.2177 10.4087 27.8896 10.2768 27.5835C10.1449 27.2773 9.95158 26.9992 9.70791 26.765C9.46424 26.5307 9.17497 26.345 8.85664 26.2183C8.5383 26.0916 8.19715 26.0266 7.85266 26.0268V26.0268C7.15803 26.028 6.49225 26.2942 6.0015 26.7671C5.51074 27.24 5.23511 27.8809 5.23511 28.5491V36.1186C5.23463 36.7872 5.51002 37.4286 6.0008 37.902C6.49159 38.3755 7.15763 38.6421 7.85266 38.6435V38.6435C8.54832 38.6435 9.21548 38.3777 9.70738 37.9045C10.1993 37.4313 10.4756 36.7895 10.4756 36.1203V34.8371C10.4711 34.6703 10.5013 34.5043 10.5645 34.3489C10.6277 34.1935 10.7226 34.0519 10.8436 33.9324C10.9646 33.8128 11.1093 33.7178 11.2691 33.653C11.4289 33.5881 11.6006 33.5547 11.774 33.5547C11.9475 33.5547 12.1192 33.5881 12.279 33.653C12.4388 33.7178 12.5835 33.8128 12.7045 33.9324C12.8255 34.0519 12.9204 34.1935 12.9836 34.3489C13.0468 34.5043 13.077 34.6703 13.0724 34.8371L13.0986 36.1186C13.0984 36.4501 13.166 36.7784 13.2977 37.0847C13.4295 37.391 13.6226 37.6694 13.8662 37.9039C14.1098 38.1384 14.399 38.3244 14.7174 38.4513C15.0357 38.5782 15.377 38.6435 15.7216 38.6435V38.6435C16.4172 38.6435 17.0844 38.3777 17.5763 37.9045C18.0682 37.4313 18.3445 36.7895 18.3445 36.1203V23.5036C18.3445 22.8345 18.0682 22.1927 17.5763 21.7195C17.0844 21.2463 16.4172 20.9805 15.7216 20.9805Z" fill="#D9117C"/>
<path d="M41.9846 28.5505C41.9846 27.157 40.8103 26.0273 39.3617 26.0273C37.9131 26.0273 36.7387 27.157 36.7387 28.5505V36.1192C36.7387 37.5127 37.9131 38.6423 39.3617 38.6423C40.8103 38.6423 41.9846 37.5127 41.9846 36.1192V28.5505Z" fill="#FFB71B"/>
</g>
<defs>
<clipPath id="clip0_3995_29588">
<rect width="42" height="33.6" fill="white" transform="translate(0 5.04199)"/>
</clipPath>
</defs>
</svg>
